<svg width="37" height="36" viewBox="0 0 37 36" fill="none" xmlns="http://www.w3.org/2000/svg">
<g clip-path="url(#clip0)">
<path d="M18.3984 36C28.3396 36 36.3984 27.9411 36.3984 18C36.3984 8.05888 28.3396 0 18.3984 0C8.45731 0 0.398438 8.05888 0.398438 18C0.398438 27.9411 8.45731 36 18.3984 36Z" fill="#727CF5"/>
<path d="M21.1166 18.4856H19.0403V26H15.8946V18.4856H14.3984V15.8447H15.8946V14.1357C15.8946 12.9137 16.4822 11 19.0683 11L21.3984 11.0096V13.5731H19.7078C19.4304 13.5731 19.0405 13.7099 19.0405 14.2929V15.8471H21.3914L21.1166 18.4856Z" fill="white"/>
</g>
<defs>
<clipPath id="clip0">
<rect width="36" height="36" fill="white" transform="translate(0.398438)"/>
</clipPath>
</defs>
</svg>
