<svg width="38" height="36" viewBox="0 0 38 36" fill="none" xmlns="http://www.w3.org/2000/svg">
<g clip-path="url(#clip0)">
<path d="M19.168 36C29.1091 36 37.168 27.9411 37.168 18C37.168 8.05888 29.1091 0 19.168 0C9.22684 0 1.16797 8.05888 1.16797 18C1.16797 27.9411 9.22684 36 19.168 36Z" fill="#727CF5"/>
<path d="M21.9197 12H16.4163C14.6251 12 13.168 13.4572 13.168 15.2483V20.7518C13.168 22.5428 14.6251 24 16.4163 24H21.9198C23.7108 24 25.1679 22.5428 25.1679 20.7518V15.2483C25.1679 13.4572 23.7108 12 21.9197 12V12ZM19.168 21.2811C17.3587 21.2811 15.8868 19.8093 15.8868 18C15.8868 16.1907 17.3587 14.7188 19.168 14.7188C20.9772 14.7188 22.4491 16.1907 22.4491 18C22.4491 19.8093 20.9772 21.2811 19.168 21.2811ZM22.5276 15.4926C21.9929 15.4926 21.558 15.0578 21.558 14.5231C21.558 13.9884 21.9929 13.5535 22.5276 13.5535C23.0622 13.5535 23.4972 13.9884 23.4972 14.5231C23.4972 15.0578 23.0622 15.4926 22.5276 15.4926Z" fill="white"/>
<path d="M19.1675 15.4219C17.7462 15.4219 16.5898 16.5782 16.5898 17.9995C16.5898 19.4208 17.7462 20.5772 19.1675 20.5772C20.5889 20.5772 21.7452 19.4208 21.7452 17.9995C21.7452 16.5782 20.5889 15.4219 19.1675 15.4219Z" fill="white"/>
<path d="M22.5278 14.2568C22.3811 14.2568 22.2617 14.3762 22.2617 14.5229C22.2617 14.6696 22.3811 14.7889 22.5278 14.7889C22.6745 14.7889 22.7939 14.6696 22.7939 14.5229C22.7939 14.3761 22.6745 14.2568 22.5278 14.2568Z" fill="white"/>
</g>
<defs>
<clipPath id="clip0">
<rect width="37" height="36" fill="white" transform="translate(0.398438)"/>
</clipPath>
</defs>
</svg>
