<svg width="38" height="37" viewBox="0 0 38 37" fill="none" xmlns="http://www.w3.org/2000/svg">
<g clip-path="url(#clip0)">
<path d="M19.9609 36.6729C29.9021 36.6729 37.9609 28.614 37.9609 18.6729C37.9609 8.73173 29.9021 0.672852 19.9609 0.672852C10.0198 0.672852 1.96094 8.73173 1.96094 18.6729C1.96094 28.614 10.0198 36.6729 19.9609 36.6729Z" fill="#727CF5"/>
<path d="M26.5187 20.0295V24.6729H23.8266V20.3406C23.8266 19.2529 23.4379 18.51 22.4631 18.51C21.7193 18.51 21.2774 19.0101 21.0822 19.4944C21.0114 19.6675 20.9931 19.9078 20.9931 20.1505V24.6727H18.3008C18.3008 24.6727 18.3369 17.3353 18.3008 16.5758H20.9933V17.7232C20.9879 17.7322 20.9802 17.7411 20.9754 17.7497H20.9933V17.7232C21.3511 17.1727 21.9891 16.3857 23.4196 16.3857C25.1908 16.3857 26.5187 17.5429 26.5187 20.0295ZM15.4844 12.6729C14.5634 12.6729 13.9609 13.2774 13.9609 14.0716C13.9609 14.849 14.546 15.471 15.449 15.471H15.4665C16.4055 15.471 16.9893 14.849 16.9893 14.0716C16.9715 13.2774 16.4055 12.6729 15.4844 12.6729ZM14.121 24.6729H16.8123V16.5758H14.121V24.6729Z" fill="white"/>
</g>
<defs>
<clipPath id="clip0">
<rect width="37" height="37" fill="white" transform="translate(0.988281)"/>
</clipPath>
</defs>
</svg>
