<svg width="37" height="36" viewBox="0 0 37 36" fill="none" xmlns="http://www.w3.org/2000/svg">
<g clip-path="url(#clip0)">
<path d="M18.5781 36C28.5193 36 36.5781 27.9411 36.5781 18C36.5781 8.05888 28.5193 0 18.5781 0C8.637 0 0.578125 8.05888 0.578125 18C0.578125 27.9411 8.637 36 18.5781 36Z" fill="#727CF5"/>
<path d="M26.3441 14.4206C25.801 14.6615 25.2168 14.8243 24.6041 14.8971C25.2296 14.5223 25.7097 13.9292 25.9363 13.2214C25.351 13.5687 24.7023 13.8206 24.0126 13.9563C23.46 13.3678 22.6726 13 21.8008 13C20.128 13 18.7713 14.3567 18.7713 16.0294C18.7713 16.2669 18.7982 16.498 18.8502 16.7199C16.3325 16.5936 14.1001 15.3876 12.6059 13.5542C12.3451 14.0015 12.1956 14.5223 12.1956 15.0774C12.1956 16.1282 12.7308 17.0558 13.5432 17.5989C13.0469 17.5833 12.5794 17.4471 12.1712 17.2196C12.171 17.2325 12.171 17.2454 12.171 17.258C12.171 18.7258 13.2156 19.9501 14.6012 20.2282C14.3473 20.2978 14.0791 20.3347 13.8033 20.3347C13.6076 20.3347 13.4181 20.3159 13.2333 20.2807C13.6187 21.4839 14.7372 22.3598 16.0632 22.3845C15.0262 23.1971 13.7201 23.6813 12.3004 23.6813C12.0564 23.6813 11.8147 23.667 11.5781 23.6388C12.9181 24.4987 14.5109 25 16.2216 25C21.7938 25 24.841 20.3839 24.841 16.3803C24.841 16.249 24.8381 16.1182 24.8322 15.9885C25.4246 15.5615 25.9381 15.0281 26.3441 14.4206Z" fill="white"/>
</g>
<defs>
<clipPath id="clip0">
<rect width="36" height="36" fill="white" transform="translate(0.578125)"/>
</clipPath>
</defs>
</svg>
