<svg width="20" height="21" viewBox="0 0 20 21" fill="none" xmlns="http://www.w3.org/2000/svg">
<g clip-path="url(#clip0)">
<path d="M11.5 8H8.5C7.94772 8 7.5 8.44772 7.5 9V12C7.5 12.5523 7.94772 13 8.5 13H11.5C12.0523 13 12.5 12.5523 12.5 12V9C12.5 8.44772 12.0523 8 11.5 8Z" fill="#8DA0A9"/>
<path d="M3.99998 0.5H1C0.447715 0.5 0 0.947715 0 1.5V4.49998C0 5.05227 0.447715 5.49998 1 5.49998H3.99998C4.55227 5.49998 4.99998 5.05227 4.99998 4.49998V1.5C4.99998 0.947715 4.55227 0.5 3.99998 0.5Z" fill="#8DA0A9"/>
<path d="M11.5 15.5H8.5C7.94772 15.5 7.5 15.9477 7.5 16.5V19.5C7.5 20.0523 7.94772 20.5 8.5 20.5H11.5C12.0523 20.5 12.5 20.0523 12.5 19.5V16.5C12.5 15.9477 12.0523 15.5 11.5 15.5Z" fill="#8DA0A9"/>
<path d="M3.99998 8H1C0.447715 8 0 8.44772 0 9V12C0 12.5523 0.447715 13 1 13H3.99998C4.55227 13 4.99998 12.5523 4.99998 12V9C4.99998 8.44772 4.55227 8 3.99998 8Z" fill="#8DA0A9"/>
<path d="M3.99998 15.5H1C0.447715 15.5 0 15.9477 0 16.5V19.5C0 20.0523 0.447715 20.5 1 20.5H3.99998C4.55227 20.5 4.99998 20.0523 4.99998 19.5V16.5C4.99998 15.9477 4.55227 15.5 3.99998 15.5Z" fill="#8DA0A9"/>
<path d="M19 0.5H16C15.4477 0.5 15 0.947715 15 1.5V4.49998C15 5.05227 15.4477 5.49998 16 5.49998H19C19.5523 5.49998 20 5.05227 20 4.49998V1.5C20 0.947715 19.5523 0.5 19 0.5Z" fill="#8DA0A9"/>
<path d="M11.5 0.5H8.5C7.94772 0.5 7.5 0.947715 7.5 1.5V4.49998C7.5 5.05227 7.94772 5.49998 8.5 5.49998H11.5C12.0523 5.49998 12.5 5.05227 12.5 4.49998V1.5C12.5 0.947715 12.0523 0.5 11.5 0.5Z" fill="#8DA0A9"/>
<path d="M19 8H16C15.4477 8 15 8.44772 15 9V12C15 12.5523 15.4477 13 16 13H19C19.5523 13 20 12.5523 20 12V9C20 8.44772 19.5523 8 19 8Z" fill="#8DA0A9"/>
<path d="M19 15.5H16C15.4477 15.5 15 15.9477 15 16.5V19.5C15 20.0523 15.4477 20.5 16 20.5H19C19.5523 20.5 20 20.0523 20 19.5V16.5C20 15.9477 19.5523 15.5 19 15.5Z" fill="#8DA0A9"/>
</g>
<defs>
<clipPath id="clip0">
<rect width="20" height="20" fill="white" transform="translate(0 0.5)"/>
</clipPath>
</defs>
</svg>
