<svg width="130" height="28" viewBox="0 0 130 28" fill="none" xmlns="http://www.w3.org/2000/svg">
<path d="M38.1816 6.6682C38.1816 6.1482 38.2776 5.6362 38.4696 5.1322C38.6696 4.6282 38.9576 4.1762 39.3336 3.7762C39.7096 3.3762 40.1656 3.0522 40.7016 2.8042C41.2376 2.5562 41.8496 2.4322 42.5376 2.4322C43.3616 2.4322 44.0736 2.6042 44.6736 2.9482C45.2816 3.2842 45.7336 3.7322 46.0296 4.2922L44.2416 5.5642C44.1616 5.3562 44.0536 5.1842 43.9176 5.0482C43.7896 4.9122 43.6456 4.8042 43.4856 4.7242C43.3256 4.6442 43.1576 4.5882 42.9816 4.5562C42.8136 4.5242 42.6496 4.5082 42.4896 4.5082C42.1536 4.5082 41.8616 4.5762 41.6136 4.7122C41.3736 4.8402 41.1736 5.0122 41.0136 5.2282C40.8616 5.4362 40.7456 5.6762 40.6656 5.9482C40.5936 6.2122 40.5576 6.4762 40.5576 6.7402C40.5576 7.0362 40.6016 7.3202 40.6896 7.5922C40.7776 7.8642 40.9056 8.1042 41.0736 8.3122C41.2416 8.5202 41.4456 8.6882 41.6856 8.8162C41.9336 8.9362 42.2096 8.9962 42.5136 8.9962C42.6736 8.9962 42.8376 8.9802 43.0056 8.9482C43.1736 8.9082 43.3336 8.8482 43.4856 8.7682C43.6456 8.6802 43.7856 8.5722 43.9056 8.4442C44.0336 8.3082 44.1336 8.1442 44.2056 7.9522L46.1136 9.0922C45.9856 9.4042 45.7896 9.6842 45.5256 9.9322C45.2696 10.1802 44.9736 10.3882 44.6376 10.5562C44.3096 10.7242 43.9536 10.8522 43.5696 10.9402C43.1936 11.0282 42.8256 11.0722 42.4656 11.0722C41.8336 11.0722 41.2536 10.9482 40.7256 10.7002C40.2056 10.4442 39.7536 10.1082 39.3696 9.6922C38.9936 9.2762 38.7016 8.8042 38.4936 8.2762C38.2856 7.7482 38.1816 7.2122 38.1816 6.6682Z" fill="black"/>
<path d="M48.7465 11.0002V2.4802H52.6585C53.0745 2.4802 53.4585 2.5682 53.8105 2.7442C54.1625 2.9122 54.4625 3.1362 54.7105 3.4162C54.9665 3.6882 55.1665 4.0042 55.3105 4.3642C55.4545 4.7162 55.5265 5.0722 55.5265 5.4322C55.5265 5.9282 55.4185 6.3922 55.2025 6.8242C54.9865 7.2482 54.6865 7.5962 54.3025 7.8682L56.1025 11.0002H53.4625L51.9625 8.3842H51.0865V11.0002H48.7465ZM51.0865 6.3442H52.5625C52.7065 6.3442 52.8385 6.2642 52.9585 6.1042C53.0865 5.9442 53.1505 5.7202 53.1505 5.4322C53.1505 5.1362 53.0785 4.9122 52.9345 4.7602C52.7905 4.6002 52.6465 4.5202 52.5025 4.5202H51.0865V6.3442Z" fill="black"/>
<path d="M62.3787 11.0722C61.7307 11.0722 61.1427 10.9482 60.6147 10.7002C60.0867 10.4522 59.6347 10.1282 59.2587 9.7282C58.8827 9.3202 58.5907 8.8562 58.3827 8.3362C58.1747 7.8162 58.0707 7.2802 58.0707 6.7282C58.0707 6.1682 58.1787 5.6282 58.3947 5.1082C58.6107 4.5882 58.9107 4.1322 59.2947 3.7402C59.6867 3.3402 60.1467 3.0242 60.6747 2.7922C61.2107 2.5522 61.7947 2.4322 62.4267 2.4322C63.0747 2.4322 63.6627 2.5562 64.1907 2.8042C64.7187 3.0522 65.1707 3.3802 65.5467 3.7882C65.9227 4.1962 66.2107 4.6602 66.4107 5.1802C66.6187 5.7002 66.7227 6.2322 66.7227 6.7762C66.7227 7.3362 66.6147 7.8762 66.3987 8.3962C66.1827 8.9082 65.8827 9.3642 65.4987 9.7642C65.1147 10.1562 64.6547 10.4722 64.1187 10.7122C63.5907 10.9522 63.0107 11.0722 62.3787 11.0722ZM60.4467 6.7522C60.4467 7.0402 60.4867 7.3202 60.5667 7.5922C60.6467 7.8562 60.7667 8.0922 60.9267 8.3002C61.0867 8.5082 61.2867 8.6762 61.5267 8.8042C61.7747 8.9322 62.0667 8.9962 62.4027 8.9962C62.7387 8.9962 63.0307 8.9322 63.2787 8.8042C63.5267 8.6682 63.7267 8.4962 63.8787 8.2882C64.0387 8.0722 64.1547 7.8282 64.2267 7.5562C64.3067 7.2842 64.3467 7.0082 64.3467 6.7282C64.3467 6.4402 64.3067 6.1642 64.2267 5.9002C64.1467 5.6282 64.0227 5.3922 63.8547 5.1922C63.6947 4.9842 63.4907 4.8202 63.2427 4.7002C63.0027 4.5722 62.7187 4.5082 62.3907 4.5082C62.0547 4.5082 61.7627 4.5722 61.5147 4.7002C61.2747 4.8282 61.0747 5.0002 60.9147 5.2162C60.7547 5.4242 60.6347 5.6642 60.5547 5.9362C60.4827 6.2002 60.4467 6.4722 60.4467 6.7522Z" fill="black"/>
<path d="M74.6042 5.2642C74.3642 5.1202 74.1162 4.9922 73.8602 4.8802C73.6442 4.7842 73.4002 4.6962 73.1282 4.6162C72.8642 4.5282 72.6042 4.4842 72.3482 4.4842C72.1402 4.4842 71.9722 4.5162 71.8442 4.5802C71.7242 4.6442 71.6642 4.7522 71.6642 4.9042C71.6642 5.0162 71.7002 5.1082 71.7722 5.1802C71.8442 5.2522 71.9482 5.3202 72.0842 5.3842C72.2202 5.4402 72.3842 5.4962 72.5762 5.5522C72.7762 5.6082 73.0002 5.6762 73.2482 5.7562C73.6402 5.8762 73.9922 6.0082 74.3042 6.1522C74.6242 6.2962 74.8962 6.4682 75.1202 6.6682C75.3442 6.8602 75.5162 7.0962 75.6362 7.3762C75.7562 7.6562 75.8162 7.9962 75.8162 8.3962C75.8162 8.9082 75.7202 9.3402 75.5282 9.6922C75.3442 10.0362 75.0962 10.3122 74.7842 10.5202C74.4802 10.7282 74.1322 10.8802 73.7402 10.9762C73.3562 11.0642 72.9682 11.1082 72.5762 11.1082C72.2642 11.1082 71.9442 11.0842 71.6162 11.0362C71.2882 10.9882 70.9602 10.9202 70.6322 10.8322C70.3122 10.7442 70.0002 10.6402 69.6962 10.5202C69.4002 10.4002 69.1242 10.2642 68.8682 10.1122L69.8762 8.0602C70.1562 8.2362 70.4482 8.3922 70.7522 8.5282C71.0082 8.6482 71.2962 8.7562 71.6162 8.8522C71.9442 8.9482 72.2762 8.9962 72.6122 8.9962C72.8682 8.9962 73.0442 8.9642 73.1402 8.9002C73.2442 8.8282 73.2962 8.7362 73.2962 8.6242C73.2962 8.5042 73.2442 8.4042 73.1402 8.3242C73.0442 8.2362 72.9082 8.1602 72.7322 8.0962C72.5562 8.0322 72.3522 7.9682 72.1202 7.9042C71.8962 7.8402 71.6562 7.7642 71.4002 7.6762C71.0242 7.5482 70.7002 7.4122 70.4282 7.2682C70.1562 7.1162 69.9322 6.9482 69.7562 6.7642C69.5802 6.5722 69.4482 6.3562 69.3602 6.1162C69.2802 5.8762 69.2402 5.6002 69.2402 5.2882C69.2402 4.8162 69.3242 4.4002 69.4922 4.0402C69.6682 3.6802 69.9042 3.3802 70.2002 3.1402C70.4962 2.9002 70.8322 2.7202 71.2082 2.6002C71.5922 2.4722 71.9962 2.4082 72.4202 2.4082C72.7322 2.4082 73.0362 2.4402 73.3322 2.5042C73.6282 2.5602 73.9122 2.6362 74.1842 2.7322C74.4642 2.8202 74.7242 2.9202 74.9642 3.0322C75.2042 3.1362 75.4202 3.2362 75.6122 3.3322L74.6042 5.2642Z" fill="black"/>
<path d="M83.8104 5.2642C83.5704 5.1202 83.3224 4.9922 83.0664 4.8802C82.8504 4.7842 82.6064 4.6962 82.3344 4.6162C82.0704 4.5282 81.8104 4.4842 81.5544 4.4842C81.3464 4.4842 81.1784 4.5162 81.0504 4.5802C80.9304 4.6442 80.8704 4.7522 80.8704 4.9042C80.8704 5.0162 80.9064 5.1082 80.9784 5.1802C81.0504 5.2522 81.1544 5.3202 81.2904 5.3842C81.4264 5.4402 81.5904 5.4962 81.7824 5.5522C81.9824 5.6082 82.2064 5.6762 82.4544 5.7562C82.8464 5.8762 83.1984 6.0082 83.5104 6.1522C83.8304 6.2962 84.1024 6.4682 84.3264 6.6682C84.5504 6.8602 84.7224 7.0962 84.8424 7.3762C84.9624 7.6562 85.0224 7.9962 85.0224 8.3962C85.0224 8.9082 84.9264 9.3402 84.7344 9.6922C84.5504 10.0362 84.3024 10.3122 83.9904 10.5202C83.6864 10.7282 83.3384 10.8802 82.9464 10.9762C82.5624 11.0642 82.1744 11.1082 81.7824 11.1082C81.4704 11.1082 81.1504 11.0842 80.8224 11.0362C80.4944 10.9882 80.1664 10.9202 79.8384 10.8322C79.5184 10.7442 79.2064 10.6402 78.9024 10.5202C78.6064 10.4002 78.3304 10.2642 78.0744 10.1122L79.0824 8.0602C79.3624 8.2362 79.6544 8.3922 79.9584 8.5282C80.2144 8.6482 80.5024 8.7562 80.8224 8.8522C81.1504 8.9482 81.4824 8.9962 81.8184 8.9962C82.0744 8.9962 82.2504 8.9642 82.3464 8.9002C82.4504 8.8282 82.5024 8.7362 82.5024 8.6242C82.5024 8.5042 82.4504 8.4042 82.3464 8.3242C82.2504 8.2362 82.1144 8.1602 81.9384 8.0962C81.7624 8.0322 81.5584 7.9682 81.3264 7.9042C81.1024 7.8402 80.8624 7.7642 80.6064 7.6762C80.2304 7.5482 79.9064 7.4122 79.6344 7.2682C79.3624 7.1162 79.1384 6.9482 78.9624 6.7642C78.7864 6.5722 78.6544 6.3562 78.5664 6.1162C78.4864 5.8762 78.4464 5.6002 78.4464 5.2882C78.4464 4.8162 78.5304 4.4002 78.6984 4.0402C78.8744 3.6802 79.1104 3.3802 79.4064 3.1402C79.7024 2.9002 80.0384 2.7202 80.4144 2.6002C80.7984 2.4722 81.2024 2.4082 81.6264 2.4082C81.9384 2.4082 82.2424 2.4402 82.5384 2.5042C82.8344 2.5602 83.1184 2.6362 83.3904 2.7322C83.6704 2.8202 83.9304 2.9202 84.1704 3.0322C84.4104 3.1362 84.6264 3.2362 84.8184 3.3322L83.8104 5.2642Z" fill="black"/>
<path d="M38.9856 25.0002V16.4802H42.5136C42.8816 16.4802 43.2176 16.5602 43.5216 16.7202C43.8336 16.8722 44.1016 17.0762 44.3256 17.3322C44.5496 17.5802 44.7256 17.8642 44.8536 18.1842C44.9816 18.5042 45.0456 18.8282 45.0456 19.1562C45.0456 19.5082 44.9856 19.8482 44.8656 20.1762C44.7456 20.4962 44.5776 20.7802 44.3616 21.0282C44.1456 21.2762 43.8856 21.4762 43.5816 21.6282C43.2856 21.7802 42.9536 21.8562 42.5856 21.8562H39.8256V25.0002H38.9856ZM39.8256 21.1122H42.5496C42.7976 21.1122 43.0216 21.0602 43.2216 20.9562C43.4296 20.8442 43.6056 20.7002 43.7496 20.5242C43.8936 20.3402 44.0056 20.1322 44.0856 19.9002C44.1656 19.6602 44.2056 19.4122 44.2056 19.1562C44.2056 18.8922 44.1576 18.6442 44.0616 18.4122C43.9736 18.1722 43.8496 17.9642 43.6896 17.7882C43.5376 17.6122 43.3536 17.4762 43.1376 17.3802C42.9296 17.2762 42.7096 17.2242 42.4776 17.2242H39.8256V21.1122Z" fill="black"/>
<path d="M48.2505 25.0002V16.4802H51.8505C52.2185 16.4802 52.5545 16.5602 52.8585 16.7202C53.1705 16.8722 53.4385 17.0762 53.6625 17.3322C53.8865 17.5802 54.0585 17.8642 54.1785 18.1842C54.3065 18.5042 54.3705 18.8282 54.3705 19.1562C54.3705 19.4682 54.3225 19.7682 54.2265 20.0562C54.1385 20.3362 54.0105 20.5922 53.8425 20.8242C53.6825 21.0482 53.4865 21.2402 53.2545 21.4002C53.0225 21.5522 52.7625 21.6562 52.4745 21.7122L54.5625 25.0002H53.6145L51.6105 21.8562H49.0905V25.0002H48.2505ZM49.0905 21.1122H51.8745C52.1225 21.1122 52.3465 21.0602 52.5465 20.9562C52.7545 20.8442 52.9305 20.6962 53.0745 20.5122C53.2185 20.3282 53.3305 20.1202 53.4105 19.8882C53.4905 19.6562 53.5305 19.4122 53.5305 19.1562C53.5305 18.9002 53.4825 18.6562 53.3865 18.4242C53.2985 18.1842 53.1745 17.9762 53.0145 17.8002C52.8625 17.6242 52.6785 17.4842 52.4625 17.3802C52.2545 17.2762 52.0345 17.2242 51.8025 17.2242H49.0905V21.1122Z" fill="black"/>
<path d="M61.3223 25.0602C60.7303 25.0602 60.1863 24.9402 59.6903 24.7002C59.2023 24.4522 58.7823 24.1282 58.4303 23.7282C58.0783 23.3202 57.8063 22.8562 57.6143 22.3362C57.4223 21.8162 57.3263 21.2842 57.3263 20.7402C57.3263 20.1722 57.4263 19.6282 57.6263 19.1082C57.8343 18.5882 58.1183 18.1282 58.4783 17.7282C58.8383 17.3282 59.2623 17.0122 59.7503 16.7802C60.2383 16.5402 60.7663 16.4202 61.3343 16.4202C61.9263 16.4202 62.4663 16.5482 62.9543 16.8042C63.4503 17.0522 63.8703 17.3802 64.2143 17.7882C64.5663 18.1962 64.8383 18.6602 65.0303 19.1802C65.2223 19.6922 65.3183 20.2162 65.3183 20.7522C65.3183 21.3202 65.2143 21.8642 65.0063 22.3842C64.8063 22.9042 64.5263 23.3642 64.1663 23.7642C63.8143 24.1562 63.3943 24.4722 62.9063 24.7122C62.4183 24.9442 61.8903 25.0602 61.3223 25.0602ZM58.1663 20.7402C58.1663 21.2042 58.2423 21.6522 58.3943 22.0842C58.5463 22.5082 58.7623 22.8882 59.0423 23.2242C59.3223 23.5522 59.6543 23.8162 60.0383 24.0162C60.4223 24.2082 60.8503 24.3042 61.3223 24.3042C61.8023 24.3042 62.2383 24.2002 62.6303 23.9922C63.0223 23.7842 63.3543 23.5122 63.6263 23.1762C63.8983 22.8402 64.1063 22.4602 64.2503 22.0362C64.4023 21.6122 64.4783 21.1802 64.4783 20.7402C64.4783 20.2762 64.3983 19.8322 64.2383 19.4082C64.0863 18.9762 63.8703 18.5962 63.5903 18.2682C63.3103 17.9402 62.9783 17.6802 62.5943 17.4882C62.2103 17.2882 61.7863 17.1882 61.3223 17.1882C60.8423 17.1882 60.4063 17.2922 60.0143 17.5002C59.6223 17.7002 59.2903 17.9682 59.0183 18.3042C58.7463 18.6402 58.5343 19.0202 58.3823 19.4442C58.2383 19.8682 58.1663 20.3002 58.1663 20.7402Z" fill="black"/>
<path d="M76.25 25.0002V18.0042L73.142 23.4162H72.65L69.542 18.0042V25.0002H68.702V16.4802H69.566L72.89 22.3122L76.238 16.4802H77.09V25.0002H76.25Z" fill="black"/>
<path d="M84.4575 25.0602C83.8655 25.0602 83.3215 24.9402 82.8255 24.7002C82.3375 24.4522 81.9175 24.1282 81.5655 23.7282C81.2135 23.3202 80.9415 22.8562 80.7495 22.3362C80.5575 21.8162 80.4615 21.2842 80.4615 20.7402C80.4615 20.1722 80.5615 19.6282 80.7615 19.1082C80.9695 18.5882 81.2535 18.1282 81.6135 17.7282C81.9735 17.3282 82.3975 17.0122 82.8855 16.7802C83.3735 16.5402 83.9015 16.4202 84.4695 16.4202C85.0615 16.4202 85.6015 16.5482 86.0895 16.8042C86.5855 17.0522 87.0055 17.3802 87.3495 17.7882C87.7015 18.1962 87.9735 18.6602 88.1655 19.1802C88.3575 19.6922 88.4535 20.2162 88.4535 20.7522C88.4535 21.3202 88.3495 21.8642 88.1415 22.3842C87.9415 22.9042 87.6615 23.3642 87.3015 23.7642C86.9495 24.1562 86.5295 24.4722 86.0415 24.7122C85.5535 24.9442 85.0255 25.0602 84.4575 25.0602ZM81.3015 20.7402C81.3015 21.2042 81.3775 21.6522 81.5295 22.0842C81.6815 22.5082 81.8975 22.8882 82.1775 23.2242C82.4575 23.5522 82.7895 23.8162 83.1735 24.0162C83.5575 24.2082 83.9855 24.3042 84.4575 24.3042C84.9375 24.3042 85.3735 24.2002 85.7655 23.9922C86.1575 23.7842 86.4895 23.5122 86.7615 23.1762C87.0335 22.8402 87.2415 22.4602 87.3855 22.0362C87.5375 21.6122 87.6135 21.1802 87.6135 20.7402C87.6135 20.2762 87.5335 19.8322 87.3735 19.4082C87.2215 18.9762 87.0055 18.5962 86.7255 18.2682C86.4455 17.9402 86.1135 17.6802 85.7295 17.4882C85.3455 17.2882 84.9215 17.1882 84.4575 17.1882C83.9775 17.1882 83.5415 17.2922 83.1495 17.5002C82.7575 17.7002 82.4255 17.9682 82.1535 18.3042C81.8815 18.6402 81.6695 19.0202 81.5175 19.4442C81.3735 19.8682 81.3015 20.3002 81.3015 20.7402Z" fill="black"/>
<path d="M97.4868 17.2242H94.4508V25.0002H93.6108V17.2242H90.5748V16.4802H97.4868V17.2242Z" fill="black"/>
<path d="M100.563 25.0002V16.4802H101.403V25.0002H100.563Z" fill="black"/>
<path d="M108.772 25.0602C108.18 25.0602 107.636 24.9402 107.14 24.7002C106.652 24.4522 106.232 24.1282 105.88 23.7282C105.528 23.3202 105.256 22.8562 105.064 22.3362C104.872 21.8162 104.776 21.2842 104.776 20.7402C104.776 20.1722 104.876 19.6282 105.076 19.1082C105.284 18.5882 105.568 18.1282 105.928 17.7282C106.288 17.3282 106.712 17.0122 107.2 16.7802C107.688 16.5402 108.216 16.4202 108.784 16.4202C109.376 16.4202 109.916 16.5482 110.404 16.8042C110.9 17.0522 111.32 17.3802 111.664 17.7882C112.016 18.1962 112.288 18.6602 112.48 19.1802C112.672 19.6922 112.768 20.2162 112.768 20.7522C112.768 21.3202 112.664 21.8642 112.456 22.3842C112.256 22.9042 111.976 23.3642 111.616 23.7642C111.264 24.1562 110.844 24.4722 110.356 24.7122C109.868 24.9442 109.34 25.0602 108.772 25.0602ZM105.616 20.7402C105.616 21.2042 105.692 21.6522 105.844 22.0842C105.996 22.5082 106.212 22.8882 106.492 23.2242C106.772 23.5522 107.104 23.8162 107.488 24.0162C107.872 24.2082 108.3 24.3042 108.772 24.3042C109.252 24.3042 109.688 24.2002 110.08 23.9922C110.472 23.7842 110.804 23.5122 111.076 23.1762C111.348 22.8402 111.556 22.4602 111.7 22.0362C111.852 21.6122 111.928 21.1802 111.928 20.7402C111.928 20.2762 111.848 19.8322 111.688 19.4082C111.536 18.9762 111.32 18.5962 111.04 18.2682C110.76 17.9402 110.428 17.6802 110.044 17.4882C109.66 17.2882 109.236 17.1882 108.772 17.1882C108.292 17.1882 107.856 17.2922 107.464 17.5002C107.072 17.7002 106.74 17.9682 106.468 18.3042C106.196 18.6402 105.984 19.0202 105.832 19.4442C105.688 19.8682 105.616 20.3002 105.616 20.7402Z" fill="black"/>
<path d="M116.991 18.0402V25.0002H116.151V16.4802H116.799L122.439 23.5722V16.4922H123.279V25.0002H122.547L116.991 18.0402Z" fill="black"/>
<rect x="0.917969" y="7.24219" width="6" height="26" rx="2" transform="rotate(-45 0.917969 7.24219)" fill="#727CF5"/>
<rect x="19.3027" y="3" width="6" height="26" rx="2" transform="rotate(45 19.3027 3)" fill="#727CF5"/>
</svg>
