<svg width="24" height="25" viewBox="0 0 24 25" fill="none" xmlns="http://www.w3.org/2000/svg">
<circle cx="12" cy="12.3564" r="12" fill="#F4F4F4"/>
<path d="M17.494 7.86621H6.5191C6.20269 7.86621 5.92079 8.01567 5.74023 8.24721L11.1484 12.2012C11.6536 12.5706 12.3593 12.5706 12.8646 12.2012L18.2728 8.24725C18.0923 8.01563 17.8104 7.86621 17.494 7.86621Z" fill="#B8CDD7"/>
<path d="M13.2907 12.7794C12.9127 13.0557 12.4596 13.194 12.0067 13.194C11.5536 13.194 11.1006 13.0558 10.7226 12.7794L5.5332 8.98538C5.5332 11.2783 5.5332 13.5713 5.5332 15.8642C5.5332 16.406 5.97552 16.8467 6.51924 16.8467H17.4941C18.0378 16.8467 18.4801 16.4059 18.4801 15.8642V8.98535L13.2907 12.7794Z" fill="#B8CDD7"/>
</svg>
