<svg width="11" height="11" viewBox="0 0 11 11" fill="none" xmlns="http://www.w3.org/2000/svg">
<path d="M5.00805 0.191406C2.24231 0.191406 0 2.43001 0 5.19139C0 7.95278 2.24231 10.1914 5.00805 10.1914C7.7741 10.1914 10.0161 7.95278 10.0161 5.19139C10.0161 2.43001 7.77401 0.191406 5.00805 0.191406Z" fill="white"/>
<path d="M4.89986 6.71824C4.80526 6.71824 4.72736 6.68485 4.66615 6.61808C4.6105 6.5513 4.58268 6.45949 4.58268 6.34263C4.58268 6.03658 4.63833 5.77783 4.74962 5.56638C4.86091 5.35493 5.02228 5.124 5.23373 4.8736C5.40067 4.67328 5.52309 4.50634 5.60099 4.37279C5.67889 4.23924 5.71784 4.089 5.71784 3.92207C5.71784 3.73844 5.64829 3.59376 5.50917 3.48803C5.37563 3.37674 5.192 3.3211 4.95829 3.3211C4.75796 3.3211 4.56599 3.36561 4.38236 3.45465C4.19873 3.53811 3.9845 3.66053 3.73966 3.8219C3.60054 3.89981 3.48647 3.93876 3.39744 3.93876C3.30284 3.93876 3.21938 3.89703 3.14704 3.81356C3.08026 3.72453 3.04688 3.62158 3.04688 3.50473C3.04688 3.34336 3.11365 3.21259 3.2472 3.11243C3.48091 2.91211 3.75635 2.7563 4.07353 2.64501C4.39071 2.52815 4.71067 2.46973 5.03341 2.46973C5.37284 2.46973 5.67333 2.52815 5.93486 2.64501C6.20196 2.76186 6.40784 2.92324 6.55252 3.12912C6.70276 3.33501 6.77788 3.5715 6.77788 3.8386C6.77788 4.12795 6.70833 4.38114 6.56922 4.59815C6.4301 4.80961 6.227 5.04888 5.9599 5.31598C5.73175 5.54969 5.55925 5.74723 5.4424 5.9086C5.33111 6.06441 5.26155 6.24247 5.23373 6.44279C5.21704 6.53183 5.17809 6.60138 5.11688 6.65146C5.06123 6.69598 4.98889 6.71824 4.89986 6.71824ZM4.91655 8.47106C4.73849 8.47106 4.59103 8.41263 4.47417 8.29578C4.35732 8.17336 4.29889 8.02312 4.29889 7.84505C4.29889 7.66699 4.35732 7.51953 4.47417 7.40267C4.59103 7.28025 4.73849 7.21904 4.91655 7.21904C5.09462 7.21904 5.24208 7.28025 5.35893 7.40267C5.47579 7.51953 5.53421 7.66699 5.53421 7.84505C5.53421 8.02312 5.473 8.17336 5.35059 8.29578C5.23373 8.41263 5.08905 8.47106 4.91655 8.47106Z" fill="#8DA0A9"/>
</svg>
